<?xml version="1.0" standalone="no"?>
<!DOCTYPE svg PUBLIC "-//W3C//DTD SVG 20010904//EN"
 "http://www.w3.org/TR/2001/REC-SVG-20010904/DTD/svg10.dtd">
<svg version="1.0" xmlns="http://www.w3.org/2000/svg"
 width="443.000000pt" height="443.000000pt" viewBox="0 0 443.000000 443.000000"
 preserveAspectRatio="xMidYMid meet">
<metadata>
Created by potrace 1.14, written by Peter Selinger 2001-2017
</metadata>
<g transform="translate(0.000000,443.000000) scale(0.100000,-0.100000)"
fill="#000000" stroke="none">
<path d="M2038 4425 c-2 -1 -30 -6 -63 -9 -212 -23 -397 -70 -600 -153 -134
-55 -328 -157 -390 -205 -5 -5 -39 -29 -75 -55 -124 -88 -350 -297 -350 -322
0 -6 -4 -11 -10 -11 -5 0 -41 -42 -80 -92 -38 -51 -74 -97 -78 -103 -32 -40
-197 -332 -202 -358 -6 -28 -14 -47 -19 -47 -4 0 -8 -6 -8 -12 -1 -7 -15 -51
-32 -98 -31 -84 -66 -202 -75 -250 -2 -14 -9 -45 -14 -70 -10 -42 -15 -71 -28
-168 -10 -68 -12 -416 -3 -482 25 -193 75 -420 108 -495 10 -23 24 -58 25 -65
9 -42 138 -306 176 -360 11 -16 20 -31 20 -34 0 -7 111 -163 145 -205 170
-207 356 -370 580 -508 88 -55 306 -163 327 -163 8 0 18 -4 24 -8 13 -12 155
-58 264 -87 16 -4 120 -25 145 -30 17 -3 41 -7 54 -10 70 -14 186 -20 356 -19
191 2 273 8 361 28 12 2 37 7 55 10 46 7 182 43 244 64 28 9 52 17 55 17 3 1
18 7 33 13 16 7 31 12 34 12 11 0 104 43 213 98 113 58 287 168 349 222 9 8
39 33 66 55 62 49 234 222 272 272 15 21 36 47 46 58 67 73 229 349 294 500
75 174 139 424 161 630 9 93 8 392 -2 480 -13 103 -15 115 -27 170 -6 28 -13
64 -15 80 -3 17 -9 41 -14 55 -5 14 -18 59 -30 100 -11 41 -25 84 -29 95 -5
11 -16 36 -24 55 -8 19 -18 46 -22 60 -4 13 -34 75 -66 138 -161 310 -343 528
-640 766 -32 26 -145 101 -179 120 -19 10 -37 22 -40 26 -8 10 -248 125 -315
150 -33 12 -69 26 -80 30 -20 9 -157 49 -185 55 -232 50 -291 57 -512 60 -108
2 -198 2 -200 0z"/>
</g>
</svg>
